<?xml version="1.0" encoding="utf-8"?>
<!-- Generator: Adobe Illustrator 17.0.0, SVG Export Plug-In . SVG Version: 6.00 Build 0)  -->
<!DOCTYPE svg PUBLIC "-//W3C//DTD SVG 1.1//EN" "http://www.w3.org/Graphics/SVG/1.1/DTD/svg11.dtd">
<svg version="1.1" id="icons" xmlns="http://www.w3.org/2000/svg" xmlns:xlink="http://www.w3.org/1999/xlink" x="0px" y="0px"
	 width="24.001px" height="24.001px" viewBox="0 0 24.001 24.001" enable-background="new 0 0 24.001 24.001" xml:space="preserve">
<path fill="#7B7B7B" d="M23.417,20.587l-5.743-5.744c-0.066-0.065-0.14-0.117-0.211-0.172C18.432,13.183,19,11.409,19,9.5
	C19,4.253,14.748,0,9.5,0C4.254,0,0,4.253,0,9.5C0,14.748,4.254,19,9.5,19c1.909,0,3.684-0.568,5.174-1.538
	c0.055,0.071,0.105,0.144,0.17,0.209l5.743,5.744c0.392,0.391,0.903,0.586,1.414,0.586c0.512,0,1.023-0.195,1.415-0.585
	C24.196,22.635,24.196,21.369,23.417,20.587z M9.5,16C5.917,16,3,13.083,3,9.5C3,5.916,5.917,3,9.5,3C13.083,3,16,5.916,16,9.5
	C16,13.083,13.083,16,9.5,16z"/>
</svg>
